<?xml version="1.0" encoding="utf-8"?>
<!-- Generator: Adobe Illustrator 22.1.0, SVG Export Plug-In . SVG Version: 6.00 Build 0)  -->
<svg version="1.1" id="Layer_1" xmlns="http://www.w3.org/2000/svg" xmlns:xlink="http://www.w3.org/1999/xlink" x="0px" y="0px"
	 viewBox="0 0 24 24" style="enable-background:new 0 0 24 24;" xml:space="preserve">
<style type="text/css">
	.st0{fill:#999999;}
	.st1{fill:#FFFFFF;}
</style>
<circle class="st0" cx="12" cy="12" r="12"/>
<g id="svgg">
	<path id="path0" class="st1" d="M11.8,3.2c0,0.1-1.2,2.1-2.7,4.5c-1.4,2.4-2.6,4.4-2.6,4.4c0,0,0.8,0.5,2.7,1.7l2.8,1.6l2.8-1.6
		c2-1.2,2.8-1.7,2.7-1.7C17.4,11.8,12,3,12,3C11.9,3,11.9,3.1,11.8,3.2 M6.5,13.3C6.6,13.4,12,21,12,21c0,0,5.5-7.8,5.5-7.8
		c0,0-5.1,3-5.4,3.2L12,16.5l-2.7-1.6C7.9,14,6.7,13.3,6.5,13.3C6.5,13.2,6.5,13.2,6.5,13.3"/>
</g>
</svg>
