<?xml version="1.0" encoding="UTF-8"?>
<svg width="165px" height="35px" viewBox="0 0 165 35" version="1.1" xmlns="http://www.w3.org/2000/svg" xmlns:xlink="http://www.w3.org/1999/xlink">
    <!-- Generator: Sketch 52.3 (67297) - http://www.bohemiancoding.com/sketch -->
    <title>CanYa_CanSwap</title>
    <desc>Created with Sketch.</desc>
    <g id="Symbols" stroke="none" stroke-width="1" fill="none" fill-rule="evenodd">
        <g id="Logo/Canswap">
            <g id="CanYa_CanSwap" transform="translate(-0.000000, 0.000000)">
                <path d="M80.2100207,12.1183884 C79.5548554,11.2597796 78.6576791,10.5887052 77.5184917,10.1051653 C76.3793044,9.62162534 74.920489,9.38057851 73.1420455,9.38202479 C71.7132787,9.38753865 70.3042251,9.71582343 69.0201446,10.3423554 C68.4035875,10.6360985 67.8324855,11.0169956 67.3243802,11.4733471 C66.6321113,12.1111164 66.0633745,12.8710664 65.6466942,13.7150826 C64.193735,16.5543838 61.9954059,18.944698 59.2873967,20.6297521 L59.2873967,30.7334711 C59.2873967,32.668981 60.8562257,34.2381337 62.7917355,34.2385331 L65.9345041,34.2385331 L65.9345041,21.5495868 C65.9345041,19.0846419 66.340186,17.3136708 67.1515496,16.2366736 C67.9629132,15.1596763 69.2739669,14.6216598 71.0847107,14.622624 C72.6756198,14.622624 73.7844353,15.1141185 74.411157,16.0971074 C75.0378788,17.0800964 75.3500344,18.5702479 75.347624,20.567562 L75.347624,30.8173554 C75.347624,31.7241327 75.7078399,32.5937709 76.3490283,33.2349593 C76.9902167,33.8761477 77.8598549,34.2363636 78.7666322,34.2363636 L81.9947314,34.2363636 L81.9947314,19.3505165 C81.9947314,17.8521694 81.8621556,16.4868802 81.5970041,15.2546488 C81.3318526,14.0224174 80.8695248,12.9769972 80.2100207,12.1183884 Z" id="Path" fill="#33CCFF"></path>
                <path d="M59.2859504,10.0350207 L59.2859504,18.328719 C61.626906,16.0652786 63.2887486,13.1926829 64.0839876,10.0350207 L59.2859504,10.0350207 Z" id="Path" fill="#33CCFF"></path>
                <path d="M21.7122934,26.7757231 L21.6971074,26.7930785 C21.5879132,26.9116736 21.473657,27.0237603 21.3572314,27.1322314 C21.1099174,27.3867769 20.8705579,27.6487948 20.6391529,27.9182851 C20.3836433,28.2653926 20.1158402,28.6028581 19.8357438,28.9306818 C17.6286505,31.5076271 14.7200407,33.3874075 11.4639463,34.341219 C12.9632576,34.763051 14.5826102,34.9780647 16.3220041,34.9862603 L16.4304752,34.9862603 C16.6119835,34.9862603 16.7920455,34.9804752 16.9684917,34.9754132 C18.8192493,34.9272039 20.5280303,34.6186639 22.0948347,34.0497934 C23.7601854,33.456656 25.2886009,32.53331 26.5884298,31.335124 C27.8683884,30.1491736 28.8983815,28.7134986 29.6784091,27.0280992 C30.372624,25.5278237 30.8306129,23.8662879 31.052376,22.0434917 C28.2484571,22.5063347 25.6004202,23.648372 23.3393595,25.369938 C22.7689407,25.8050336 22.2255775,26.2744995 21.7122934,26.7757231 Z" id="Path" fill="#33CCFF"></path>
                <path d="M16.4304752,28.8533058 C14.7759298,28.8533058 13.371832,28.5334366 12.2181818,27.8936983 C11.0913721,27.2799015 10.1280175,26.4050713 9.40878099,25.3424587 C8.67768137,24.2513679 8.14679859,23.0387611 7.8410124,21.7614669 C7.51165608,20.421162 7.34653193,19.045775 7.34927686,17.6655992 C7.34562749,16.2312257 7.51067279,14.8013995 7.8410124,13.4055785 C8.01630826,12.6641602 8.26183895,11.941128 8.57427686,11.246281 C8.63357438,11.1153926 8.69504132,10.9852273 8.75867769,10.8572314 L8.76952479,10.8362603 C8.82954545,10.7169421 8.8910124,10.5983471 8.95464876,10.4826446 C8.97417355,10.4464876 8.99514463,10.4103306 9.01539256,10.376343 C9.0660124,10.2866736 9.11663223,10.196281 9.16942149,10.108781 C9.24679752,9.98078512 9.32634298,9.85423554 9.40878099,9.73057851 C10.1240164,8.65821669 11.0891404,7.77573256 12.2210744,7.15909091 C13.3742424,6.51983471 14.7783402,6.19996556 16.4333678,6.19948347 C16.5107438,6.19948347 16.5866736,6.19948347 16.6633264,6.20382231 C18.3352274,6.2472745 19.9469585,6.83675255 21.252376,7.8822314 C21.8982359,8.40252389 22.4521487,9.02757029 22.8910124,9.73130165 L22.9040289,9.75227273 C23.7717975,11.1595041 25.2730372,12.0482438 26.9254132,12.0482438 L30.8484504,12.0482438 C30.630062,10.114084 30.099759,8.39783058 29.2575413,6.89948347 C28.8431984,6.1592693 28.3575974,5.46126333 27.8076446,4.81539256 C27.2797238,4.19686813 26.6912957,3.63266512 26.0511364,3.13119835 C24.7323449,2.10633139 23.2426098,1.32290456 21.6508264,0.81714876 C19.9635336,0.279474796 18.202056,0.0110312605 16.4311983,0.0216942149 C13.8717631,0.0188016529 11.5700069,0.469559229 9.52592975,1.37396694 C8.53627167,1.81111158 7.59494555,2.35036251 6.71725207,2.98295455 L6.71002066,2.98295455 C6.66229339,3.01766529 6.6160124,3.0552686 6.56539256,3.08997934 C6.51477273,3.12469008 6.4518595,3.17458678 6.39545455,3.21797521 C6.2768595,3.30836777 6.16043388,3.40092975 6.0447314,3.49493802 C5.99049587,3.53977273 5.93553719,3.5838843 5.88130165,3.62944215 C5.76415289,3.72778926 5.64917355,3.82902893 5.5356405,3.93099174 C5.48791322,3.97438017 5.43873967,4.01559917 5.3910124,4.0589876 C5.23336777,4.2036157 5.0786157,4.3482438 4.92747934,4.50444215 L4.89349174,4.53698347 C4.70692149,4.72548209 4.52565427,4.91976584 4.34969008,5.11983471 C4.20506198,5.28326446 4.06694215,5.4517562 3.92954545,5.62097107 C3.88254132,5.67954545 3.83481405,5.73739669 3.78491736,5.79597107 C2.628951,7.27579468 1.72718242,8.93759042 1.11652893,10.7133264 C0.372176309,12.8518939 0,15.1693182 0,17.6655992 C0,20.0996901 0.37434573,22.3698691 1.12303719,24.4761364 C1.87172865,26.5824036 2.94848485,28.4158058 4.35330579,29.976343 C5.07321479,30.7753564 5.88129014,31.4902762 6.76208678,32.107438 C10.3370448,32.0688871 13.8134657,30.9306994 16.7190083,28.8475207 C16.6235537,28.8533058 16.5280992,28.8533058 16.4304752,28.8533058 Z" id="Path" fill="#33CCFF"></path>
                <path d="M33.5538223,24.8085455 L33.5538223,24.8005455 L33.5538223,24.8085455 Z" id="Path" fill="#33CCFF"></path>
                <path d="M33.4411054,25.1235868 L33.4561054,25.0755868 L33.4411054,25.1235868 Z" id="Path" fill="#33CCFF"></path>
                <path d="M33.2767831,25.7449029 C33.2767831,25.7279029 33.2847831,25.7119029 33.2877831,25.6959029 C33.2767831,25.7119029 33.2767831,25.7279029 33.2767831,25.7449029 Z" id="Path" fill="#33CCFF"></path>
                <path d="M33.3482665,25.4337211 C33.3532665,25.4127211 33.3592665,25.3917211 33.3652665,25.3707211 C33.3602665,25.3937211 33.3542665,25.4127211 33.3482665,25.4337211 Z" id="Path" fill="#33CCFF"></path>
                <path d="M33.3497934,25.3655992 C33.3816116,25.2766529 33.4143388,25.1884298 33.4497934,25.1030992 C33.4143388,25.1884298 33.3807025,25.2766529 33.3497934,25.3655992 Z" id="Path" fill="#33CCFF"></path>
                <path d="M33.2694938,25.688843 C33.2984938,25.5941116 33.3304938,25.5015496 33.3644938,25.411157 C33.3304938,25.5015496 33.2984938,25.5941116 33.2694938,25.688843 Z" id="Path" fill="#33CCFF"></path>
                <path d="M33.1494835,26.3657025 C33.1784091,26.1444215 33.2145661,25.9318182 33.2594008,25.7257231 C33.2160124,25.9303719 33.1784091,26.1436983 33.1494835,26.3657025 Z" id="Path" fill="#33CCFF"></path>
                <path d="M33.440186,25.0683884 C33.47207,24.9751033 33.5054033,24.8832645 33.540186,24.793595 C33.5054033,24.8832645 33.47207,24.9751033 33.440186,25.0683884 Z" id="Path" fill="#33CCFF"></path>
                <path d="M40.9109504,24.803719 C41.2955988,24.5268356 41.7224457,24.3139006 42.175,24.1731405 C42.6579629,24.0166345 43.1504688,23.8912738 43.6494835,23.7978306 C44.1797865,23.7043044 44.7100895,23.6266873 45.2403926,23.5649793 C46.2883773,23.3982732 47.3264359,23.1742456 48.3498967,22.893905 L48.3802686,22.8859504 C50.3855372,22.3399793 52.8825413,21.4309917 54.4076446,20.0382231 C55.2815169,19.3858796 55.7968225,18.359824 55.7982438,17.2693182 L55.7982438,16.2641529 C55.7982438,15.3481749 55.670489,14.5440427 55.4149793,13.8517562 C55.2705929,13.4507495 55.0702279,13.0721742 54.8198347,12.7272727 C54.1599934,11.8355705 53.290744,11.120054 52.288843,10.643905 C51.2105745,10.1305265 50.0578519,9.79103099 48.8734504,9.63801653 C48.2467287,9.55268595 47.6265152,9.48856749 47.0128099,9.44566116 C46.858781,9.43481405 46.7047521,9.42469008 46.5507231,9.41673554 C46.0898416,9.39214876 45.6318526,9.38009642 45.1767562,9.38057851 C44.8484504,9.38057851 44.5172521,9.38853306 44.1889463,9.40516529 C43.1817852,9.45560886 42.1797002,9.58008396 41.1908058,9.77758264 C39.9309108,10.0184292 38.7205663,10.4697109 37.6105372,11.1125 C36.5590124,11.7286009 35.6625445,12.5773265 34.989876,13.593595 C34.3024105,14.6243113 33.9121556,15.919697 33.8191116,17.4797521 L38.0010331,17.4797521 C39.2535124,17.4797521 40.3779959,16.7616736 40.9586777,15.6516529 C41.1546012,15.2671585 41.4346423,14.9317518 41.7779959,14.6703512 C42.4331612,14.180062 43.3033402,13.9043044 44.3885331,13.8430785 C44.5389463,13.8329545 44.6908058,13.8286157 44.8491736,13.8286157 C45.144938,13.8286157 45.4334711,13.8387397 45.7089876,13.8575413 C45.9845041,13.876343 46.2650826,13.9059917 46.5283058,13.9443182 C47.0074497,14.0113939 47.4690964,14.1705147 47.8878099,14.4129132 C48.2818815,14.651468 48.6047692,14.9913366 48.8228306,15.3971074 C48.8831436,15.5066668 48.9341825,15.6210812 48.9754132,15.7391529 C49.1070248,16.1098829 49.1728306,16.5642562 49.1728306,17.1022727 C49.2032025,17.7899793 49.0007231,18.3113636 48.5646694,18.6707645 C48.1286157,19.0301653 47.5341942,19.3020661 46.7871901,19.4886364 C45.9406622,19.6913876 45.0805067,19.8322898 44.2135331,19.9102273 C43.2459711,20.0037534 42.262741,20.1283747 41.263843,20.2840909 C40.2625821,20.4406534 39.2706379,20.6518851 38.2924587,20.9168388 C37.6747941,21.0808549 37.0768428,21.3116942 36.5091942,21.6052686 C36.2189937,21.7562161 35.9385837,21.9252832 35.6696281,22.1114669 C34.8864571,22.6641989 34.2449612,23.3941514 33.7974174,24.2418388 C33.7020971,24.4192925 33.617577,24.602339 33.5443182,24.7899793 L33.5443182,24.7957645 C33.5096074,24.8854339 33.476343,24.9772727 33.4445248,25.0705579 L33.4336777,25.1052686 C33.4054752,25.1905992 33.3794421,25.2788223 33.3541322,25.3677686 C33.3497934,25.3829545 33.3454545,25.3981405 33.3418388,25.4133264 C33.3172521,25.503719 33.2941116,25.596281 33.2731405,25.6910124 C33.2731405,25.7025826 33.2673554,25.7141529 33.265186,25.7264463 C33.2203512,25.9318182 33.1841942,26.1451446 33.1552686,26.3664256 C33.1386364,26.4965909 33.1234504,26.6289256 33.1126033,26.764876 C33.0880165,27.0447314 33.0757231,27.3347107 33.0757231,27.6369835 C33.0757231,28.8865702 33.286157,29.9638085 33.7070248,30.8686983 C34.1068992,31.7460264 34.7088205,32.5162082 35.4635331,33.116219 C36.2402424,33.7208382 37.1296783,34.1645728 38.0798554,34.4214876 C39.0189924,34.6789692 39.9865084,34.8186432 40.960124,34.8372934 C41.0700413,34.8372934 41.1770661,34.8416322 41.2905992,34.8416322 C41.572624,34.8416322 41.8532025,34.8329545 42.1308884,34.8192149 L42.4107438,34.8004132 C42.7,34.7796832 42.9892562,34.7502755 43.2785124,34.7121901 C44.1017094,34.6038535 44.914606,34.4280202 45.7089876,34.1864669 C47.1269393,33.7584475 48.4114208,32.9739153 49.4396694,31.9078512 L49.4497934,31.8977273 L49.4555785,31.8919421 C49.4555785,31.901343 49.4555785,31.9107438 49.4555785,31.9201446 C49.9506,33.2991717 51.2532476,34.2230353 52.7183884,34.2341942 L55.7996901,34.2341942 L55.7996901,22.3233471 C53.9018747,22.8128815 52.1004642,23.6197021 50.4715909,24.7097107 L50.3710744,24.7769628 C49.5688221,25.3365047 49.0375007,26.2063927 48.9059917,27.1756198 C48.9146694,27.1069215 48.9240702,27.0389463 48.9356405,26.9731405 C48.8187822,27.4099603 48.6462232,27.829935 48.4222107,28.2227273 C48.0775138,28.8316116 47.5472107,29.3542011 46.8313017,29.7904959 C46.3786157,30.0681818 45.8058884,30.2547521 45.1167355,30.3559917 C44.9128099,30.3856405 44.7002066,30.408781 44.4760331,30.4232438 C44.2518595,30.4377066 44.0153926,30.4463843 43.7702479,30.4463843 L43.7565083,30.4463843 C43.6429752,30.4463843 43.528719,30.4420455 43.415186,30.4377066 C43.3428719,30.4377066 43.2705579,30.4319215 43.1982438,30.4254132 C43.1924002,30.4275108 43.1860089,30.4275108 43.1801653,30.4254132 C43.1280992,30.4254132 43.0760331,30.418905 43.0261364,30.4152893 C42.9762397,30.4116736 42.9270661,30.4080579 42.8815083,30.4015496 L42.6262397,30.3690083 C42.5633264,30.3610537 42.5004132,30.3530992 42.4375,30.3408058 C42.3745868,30.3285124 42.3116736,30.3205579 42.2487603,30.3082645 C41.7849234,30.2287052 41.3403274,30.0621043 40.9384298,29.8172521 C40.5604847,29.580865 40.2522465,29.2481674 40.0453512,28.8533058 C39.8284091,28.4497934 39.7192149,27.948657 39.7192149,27.356405 C39.7192149,26.7316116 39.8262397,26.2181818 40.0453512,25.8110537 C40.2560345,25.4155278 40.5516345,25.0715255 40.9109504,24.803719 Z" id="Path" fill="#33CCFF"></path>
                <path d="M124.592333,7.81497934 C124.586333,7.84797934 124.582333,7.88097934 124.575333,7.91497934 C124.582333,7.88097934 124.586333,7.84797934 124.592333,7.81497934 Z" id="Path" fill="#33CCFF"></path>
                <path d="M124.647693,7.24152893 C124.64708,7.4336823 124.624672,7.62547555 124.580693,7.81497934 C124.626934,7.62568517 124.649359,7.43375016 124.647693,7.24152893 Z" id="Path" fill="#33CCFF"></path>
                <path d="M124.578655,7.89570661 C124.578655,7.90770661 124.578655,7.91870661 124.571655,7.92970661 C124.573655,7.91870661 124.576655,7.90670661 124.578655,7.89570661 Z" id="Path" fill="#33CCFF"></path>
                <path d="M89.2666322,20.1033058 C87.8420455,19.6289256 86.722865,19.0137741 85.9090909,18.2578512 L86.9844008,15.9900826 C87.7596074,16.6876722 88.7529614,17.2546143 89.9644628,17.6909091 C91.162361,18.1235476 92.4265772,18.3437943 93.7002066,18.3417355 C95.3875344,18.3417355 96.6472452,18.055854 97.4793388,17.4840909 C98.3114325,16.9123278 98.7279614,16.1518251 98.7289256,15.2025826 C98.7289256,14.504511 98.5011364,13.9375689 98.0455579,13.5017562 C97.5627929,13.0494979 96.9876988,12.7073033 96.3599174,12.4987603 C95.6912534,12.2659091 94.7463499,12.0043733 93.5252066,11.7141529 C91.9945592,11.3463154 90.7591942,10.9779959 89.8191116,10.6091942 C88.8881199,10.2474362 88.0596944,9.66354142 87.4059917,8.90836777 C86.7378099,8.14328512 86.403478,7.11136364 86.4029959,5.81260331 C86.3902628,4.77040117 86.6888906,3.74811691 87.2606405,2.87665289 C87.8319215,2.00454545 88.6996901,1.30671488 89.8639463,0.783161157 C91.0282025,0.259607438 92.4715909,-0.00144628099 94.1941116,3.8536611e-16 C95.3904532,-2.31114131e-05 96.5816685,0.156293507 97.7375,0.464979339 C98.9003099,0.775447658 99.8984848,1.22114325 100.732025,1.80206612 L99.7724174,4.12768595 C98.926775,3.58842224 98.0085414,3.17252645 97.0454545,2.89256198 C96.1203864,2.61827025 95.1611428,2.47633141 94.196281,2.47097107 C92.5489669,2.47097107 91.3133609,2.77131543 90.4894628,3.37200413 C89.6655647,3.97269284 89.2538567,4.74789945 89.2543388,5.69762397 C89.2543388,6.3952135 89.486949,6.96215565 89.9521694,7.39845041 C90.4512607,7.85483017 91.0405323,8.20144603 91.6819215,8.41590909 C92.3698691,8.65695592 93.3048898,8.9136708 94.4869835,9.18605372 C96.0181129,9.55485537 97.248657,9.92317493 98.1786157,10.2910124 C99.1011675,10.6535381 99.9236079,11.2315027 100.577273,11.9766529 C101.245455,12.7330579 101.579787,13.7505165 101.580269,15.0290289 C101.588314,16.0683913 101.284531,17.0862906 100.708161,17.9512397 C100.126756,18.8325069 99.2450069,19.5300964 98.0629132,20.0440083 C96.8808196,20.5579201 95.4273072,20.814635 93.702376,20.8141529 C92.1950586,20.8189459 90.6969702,20.5788708 89.2666322,20.1033058 Z" id="Path" fill="#919D9D"></path>
                <polygon id="Path" fill="#919D9D" points="128.43843 5.17479339 122.682955 20.5820248 120.007335 20.5820248 115.557851 8.8946281 111.051963 20.5813017 108.376343 20.5813017 102.653409 5.17479339 105.298657 5.17479339 109.772727 17.4421488 114.423967 5.17479339 116.778512 5.17479339 121.342975 17.5 125.936364 5.17479339"></polygon>
                <path d="M141.272727,6.59865702 C142.406612,7.64721074 142.973554,9.20798898 142.973554,11.2809917 L142.973554,20.5820248 L140.327583,20.5820248 L140.327583,18.5471074 C139.862362,19.2634986 139.19876,19.810916 138.336777,20.1893595 C137.474793,20.567803 136.452514,20.7560606 135.269938,20.7541322 C133.544525,20.7541322 132.163567,20.3373623 131.127066,19.5038223 C130.090565,18.6702824 129.572073,17.5754477 129.571591,16.2193182 C129.571591,14.8627066 130.065978,13.7724518 131.054752,12.9485537 C132.043526,12.1246556 133.613223,11.7134298 135.763843,11.714876 L140.182955,11.714876 L140.182955,11.1623967 C140.182955,9.96053719 139.833919,9.03997934 139.135847,8.40072314 C138.437775,7.76146694 137.410675,7.4415978 136.054545,7.4411157 C135.143784,7.44097089 134.239421,7.59324623 133.378926,7.89163223 C132.506818,8.19245868 131.77042,8.59476584 131.169731,9.09855372 L130.006921,7.00506198 C130.80093,6.36580579 131.750413,5.87648072 132.855372,5.53708678 C133.996028,5.19393045 135.181595,5.02331021 136.372727,5.03088843 C138.50551,5.02992424 140.138843,5.55251377 141.272727,6.59865702 Z M138.496591,17.8926653 C139.266636,17.4241509 139.859679,16.7136194 140.182955,15.8722107 L140.182955,13.7208678 L135.878099,13.7208678 C133.51584,13.7208678 132.334711,14.5163223 132.334711,16.1072314 C132.334711,16.882438 132.635055,17.4927686 133.235744,17.9382231 C133.836433,18.3836777 134.669731,18.606646 135.73564,18.6071281 C136.801067,18.6056818 137.721384,18.3675275 138.496591,17.8926653 Z" id="Shape" fill="#919D9D" fill-rule="nonzero"></path>
                <path d="M160.328202,6.01725207 C161.49344,6.66034155 162.455172,7.61706339 163.104339,8.77892562 C163.772521,9.96150138 164.106853,11.3279959 164.107335,12.8784091 C164.107817,14.4288223 163.773485,15.8006198 163.104339,16.9938017 C162.45887,18.1621577 161.496559,19.1244688 160.328202,19.769938 C159.146109,20.4260675 157.808781,20.7541322 156.316219,20.7541322 C155.269133,20.7661877 154.232221,20.5476954 153.279029,20.1141529 C152.361504,19.6902116 151.559034,19.0524019 150.938946,18.2542355 L150.938946,26.2210744 L148.148347,26.2210744 L148.148347,5.17768595 L150.823967,5.17768595 L150.823967,7.61900826 C151.427146,6.78040427 152.239078,6.11405616 153.179236,5.68605372 C154.127996,5.25216942 155.17438,5.03522727 156.318388,5.03522727 C157.809504,5.03137052 159.146109,5.35871212 160.328202,6.01725207 Z M158.743802,17.6308884 C159.529096,17.1752486 160.173053,16.5112695 160.604442,15.7123967 C161.059056,14.8884986 161.286605,13.9438361 161.287087,12.8784091 C161.287569,11.8129821 161.060021,10.8680785 160.604442,10.0436983 C160.175003,9.24713303 159.530258,8.58735311 158.743802,8.13966942 C157.958471,7.69421488 157.071901,7.47124656 156.084091,7.47076446 C155.161563,7.45887547 154.252761,7.69487921 153.452583,8.15413223 C152.670397,8.60708993 152.027167,9.26557446 151.592665,10.0581612 C151.137087,10.8724174 150.909298,11.8125 150.909298,12.8784091 C150.909298,13.9443182 151.132266,14.8889807 151.578202,15.7123967 C152.003419,16.5155345 152.648549,17.1809807 153.43812,17.6308884 C154.243849,18.0894252 155.157088,18.3252851 156.084091,18.3142562 C157.071901,18.3142562 157.958471,18.0864669 158.743802,17.6308884 Z" id="Shape" fill="#919D9D" fill-rule="nonzero"></path>
            </g>
        </g>
    </g>
</svg>